<svg width="1921" height="1114" viewBox="0 0 1921 1114" fill="none" xmlns="http://www.w3.org/2000/svg">
<path d="M0.848633 953.757V1113.04H1918.85V858.043V506.043V309.043L764.413 979.153C626.776 1064.55 526.121 1101.2 397.665 1101.2C248.391 1101.2 148.105 1039.91 0.848633 953.757Z" fill="white"/>
<path d="M1918.85 528.872L1443.97 801.703C1274.84 883.551 1113 899.64 956.553 867.221L1918.85 306.591V528.872Z" fill="#D41A3B"/>
<mask id="mask0" mask-type="alpha" maskUnits="userSpaceOnUse" x="0" y="0" width="1921" height="1108">
<path d="M198.237 1061.67C117.145 1031.32 0.849609 954.789 0.849609 954.789V479.043V0.0432129H959.85H1920.85V308.511L1209.08 721.146L620.915 1066.69C531.428 1086.58 481.235 1109.94 389.638 1106.75C313.332 1104.09 269.786 1088.45 198.237 1061.67Z" fill="white"/>
</mask>
<g mask="url(#mask0)">
<path class="step step2" d="M-143 376.719C-84.778 336.39 -24.4564 301.066 37.7006 267.189C89.0349 239.21 126.899 183.491 178.665 156.321C217.491 135.943 248.305 119.694 288.55 102.225C327.34 85.3871 358.246 59.4341 398.436 46.1227C408.478 42.7967 458.398 84.3599 450.382 102.225C410.027 192.156 330.13 241.961 265.241 313.049C201.942 382.397 133.29 446.679 68.7793 514.968C37.2632 548.33 6.275 582.301 -26.6768 614.258C-46.9773 633.946 -69.5524 651.894 -88.1683 673.253C-100.142 686.992 -112.188 702.996 -118.026 720.561C-119.449 724.841 -88.1683 781.448 -88.1683 781.448C-58.8959 785.117 -32.8254 792.002 -7.14158 781.448C80.5755 745.4 143.564 653.588 221.065 598.229C310.038 534.677 399.264 471.508 487.232 406.551C571.231 344.525 650.275 275.932 733.975 213.425C796.213 166.945 857.508 119.161 921.002 74.3966C943.848 58.2903 967.28 40.9378 992.927 29.4267C1013.5 20.1936 1031.97 17.618 1054.2 18.0729C1064.92 18.2924 1159.64 -24.0036 1285.51 18.0728C1349.44 18.0729 1486.41 41.0024 1427.36 46.1227C1401.33 84.0102 1193.96 231.038 1165.64 267.189C1030.45 439.732 745.632 549.827 608.217 720.561C570.585 767.317 501.557 792.872 463.701 839.442C433.566 876.513 408.072 917.123 381.564 956.764C359.868 989.211 340.123 1024.22 322.515 1059.06C313.229 1077.43 314.025 1085.59 310.305 1106.03C308.059 1118.38 311.002 1124.06 320.295 1124.06C335.555 1124.06 350.607 1124.25 365.692 1121.5C433.858 1109.08 501.841 1085.96 567.704 1064.96C685.686 1027.34 801.626 981.832 911.346 924.261C971.721 892.582 1031.54 859.838 1088.61 822.411C1163.65 773.196 1347.78 654.743 1417.37 598.229C1507.08 525.386 1512.75 551.298 1601.18 476.899C1639.9 444.323 1706.26 434.93 1737.04 394.751C1754.61 371.819 1798.9 347.525 1818.96 326.628C1836.01 308.86 1851.45 269.456 1870.9 254.498C1912.34 222.635 1865.43 154.591 1909.97 126.824C1922.67 118.911 1934.82 110.386 1947.27 102.225C1954.06 97.7723 1962.67 93.1053 1966.8 86.1957" stroke="white" stroke-width="500" stroke-linecap="round" stroke-linejoin="round"/>
</g>
<mask id="mask1" mask-type="alpha" maskUnits="userSpaceOnUse" x="2" y="2" width="1917" height="881">
<path  d="M956.553 867.222C956.647 866.731 956.644 866.73 956.638 866.729L956.609 866.724L956.496 866.702C956.394 866.682 956.243 866.653 956.042 866.613C955.64 866.535 955.039 866.417 954.246 866.26C952.66 865.945 950.304 865.471 947.226 864.835C941.07 863.565 932.025 861.649 920.472 859.068C897.366 853.906 864.228 846.085 824.103 835.449C743.853 814.176 635.661 781.643 523.889 736.6C412.115 691.557 296.779 634.01 202.229 562.718C107.676 491.422 33.9533 406.413 5.32646 306.454C2.96278 298.2 2.95521 285.255 3.55283 274.314C3.85097 268.856 4.29823 263.917 4.67101 260.343C4.85737 258.556 5.02507 257.11 5.14612 256.112C5.20665 255.613 5.25551 255.226 5.2892 254.963C5.30605 254.832 5.3191 254.732 5.32793 254.665L5.33794 254.59L5.34047 254.571L5.3411 254.566L5.34125 254.565C5.34128 254.565 5.34129 254.565 4.84578 254.498L5.34129 254.565L5.34578 254.532V254.498L5.34635 2.54291H294.544L1345.45 2.54248L1918.35 2.54269V306.591V528.582L1443.76 801.254C1443.75 801.256 1443.75 801.259 1443.74 801.261C1274.71 883.055 1112.99 899.127 956.655 866.732L956.647 866.731L956.553 867.222Z" fill="#D41A3B" stroke="white"/>
</mask>
<g mask="url(#mask1)">
<path d="M1918.85 528.872L1443.98 801.704C1274.84 883.551 1113 899.64 956.553 867.222C956.553 867.222 119.52 707.012 4.84578 306.591C0.0665515 289.903 4.84578 254.498 4.84578 254.498L4.84635 2.04291H294.544L1345.45 2.04248L1918.85 2.04269V306.591V528.872Z" fill="#D41A3B"/>
<path class="step step1" d="M-55.0918 332.639C-1.00159 301.75 46.6351 255.539 100.746 224.667C160.619 190.507 213.146 154.761 270.569 116.583C363.657 54.6934 482.943 30.8914 588.349 -7.41817C606.853 -14.1435 628.852 -22 649.063 -22C659.809 -22 656.231 14.2619 656.056 20.4097C655.057 55.4904 632.571 89.078 612.435 116.583C583.608 155.959 553.395 194.829 523.416 233.349C462.155 312.063 405.512 392.103 358.921 480.461C329.038 537.133 315.491 571.845 302.535 635.184C298.355 655.621 301.458 680.733 316.521 703.307C340.809 739.706 378.739 739.227 422.411 739.372C491.996 739.602 526.339 697.834 576.25 649.209C613.632 612.791 636.449 583.099 672.15 545.022C711.629 502.916 732.205 480.532 769.715 448.737C829.381 398.162 886.001 343.751 943.645 290.897C990.474 247.96 1034.93 201.426 1083.72 160.774C1128.46 123.502 1178.47 88.6035 1227.57 57.3652C1267.24 32.1289 1310.9 7.21428 1356.1 -6.41636C1373.48 -11.6566 1392.5 -17.264 1410.94 -15.9892C1420.57 -15.3227 1415.03 32.744 1414.49 38.3309C1408.18 103.911 1374.65 166.44 1346.11 224.667C1303.83 310.943 1255.18 395.38 1204.37 476.899C1160.06 548.002 1115.59 619.097 1070.18 689.504C1039.58 736.947 1008.74 784.908 983.16 835.323C968.146 864.906 960.21 897.6 961.959 930.939C962.663 944.352 990.751 937.668 998.699 935.503C1056.42 919.781 1116.22 891.96 1167.86 862.483C1301.42 786.231 1436.39 699.162 1551.12 597.561C1692.07 472.751 1671.59 456.958 1812.96 332.639C1863.39 288.29 1796.33 176.087 1848.92 134.282C1869.35 118.042 2171.41 8.7357 2192.57 -6.41637" stroke="white" stroke-width="500" stroke-linecap="round" stroke-linejoin="round"/>
</g>
</svg>
