<svg width="1920" height="1106" viewBox="0 0 1920 1106" fill="none" xmlns="http://www.w3.org/2000/svg">
<mask id="mask0" mask-type="alpha" maskUnits="userSpaceOnUse" x="0" y="0" width="1920" height="1106">
<rect width="1920" height="1106" fill="white"/>
</mask>
<g mask="url(#mask0)">
<path d="M-2.00098 948V1106H1918V302L762.359 973.35C624.579 1058.59 523.819 1095.18 395.229 1095.18C245.799 1095.18 145.409 1034 -2.00098 948Z" fill="white"/>
<path d="M0 944V0H1920V304L1206 716L616 1056C526.233 1075.86 475.883 1099.19 384 1096C307.455 1093.35 263.773 1082.73 192 1056C110.654 1025.7 0 944 0 944Z" fill="white"/>
<path d="M1918 523.88L1442.63 796.22C1273.32 877.92 1111.31 893.98 954.7 861.62L1918 302V523.88Z" fill="#D41A3B"/>
<mask id="mask1" mask-type="alpha" maskUnits="userSpaceOnUse" x="0" y="0" width="1920" height="1097">
<path d="M0 944V0H1920V304L1206 716L616 1056C526.233 1075.86 475.883 1099.19 384 1096C307.455 1093.35 263.773 1082.73 192 1056C110.654 1025.7 0 944 0 944Z" fill="white"/>
</mask>
<g mask="url(#mask1)">
<path class="step step1" d="M850 -230C775.745 -165.027 554.236 55.3986 496 136C474.629 165.578 401.371 244.025 384 276C365.273 310.472 338.947 328.899 326 366C302.472 433.421 253.402 453.314 241.111 523.667C232.09 575.305 221.272 626.805 215.111 678.889C209.369 727.436 200 776.014 200 825C200 857.186 202.579 880.731 230 901.111C275.069 934.608 337.818 928.508 390.444 928C442.9 927.493 493.989 916.291 544.667 903.778C643.991 879.253 741.207 847.637 837.333 812.778C985.009 759.225 1131.41 702.704 1264.22 617.556C1408.12 525.3 1503.44 373.505 1634 264C1675.99 228.783 1723.67 182.818 1766 148C1796.19 123.162 1846.5 102.467 1880 82C1930.64 51.0642 1996.41 85.0611 2046 52" stroke="black" stroke-width="1000" stroke-linecap="round" stroke-linejoin="round"/>
<path d="M1918 523.88L1442.63 796.22C1273.32 877.92 1111.31 893.98 954.699 861.62C954.699 861.62 90.7931 651.7 -24.0009 252.001C-66.6902 103.362 -55.2383 -36.5404 -23.9998 -188C127.46 -922.35 1918 -1.99966 1918 -1.99966V302V523.88Z" fill="#D41A3B"/>
</g>
<mask id="mask2" mask-type="alpha" maskUnits="userSpaceOnUse" x="-52" y="-473" width="1970" height="1351">
<path class="step step2" d="M1918 523.88L1442.63 796.22C1273.32 877.92 1111.31 893.98 954.699 861.62C954.699 861.62 90.7931 651.7 -24.0009 252.001C-66.6902 103.362 -55.2383 -36.5404 -23.9998 -188C127.46 -922.35 1918 -1.99966 1918 -1.99966V302V523.88Z" fill="#D41A3B"/>
</mask>
<g mask="url(#mask2)">
<path d="M104 -70C64.8566 -39.0116 25.9334 -3.32733 -6.00008 35.1111C-27.702 61.2337 -46.0279 89.8223 -56.2223 122.444C-63.0379 144.254 -62.0001 166.141 -62.0001 188.667C-62.0001 221.629 -24.9349 183.293 -15.1112 176.444C41.2438 137.155 102.783 97.037 166.889 72C233.963 45.8036 301.977 24.2948 373.333 13.2222C378.1 12.4826 392.453 8.81123 396 14.4444C400.699 21.907 398.613 38.1351 397.667 46.3333C394.699 72.0566 373.79 93.1397 358 112C334.23 140.392 310.381 168.65 289.555 199.333C264.87 235.704 242.882 273.746 225 313.889C205.075 358.619 186.749 402.056 183.555 451.556C182.556 467.04 181.828 482.492 182.889 498C183.464 506.419 183.145 520.334 188 528C194.463 538.205 224.098 514.735 227.555 512.556C270.078 485.755 311.894 457.653 347.778 422.222C389.595 380.932 429.484 337.834 471.889 297.111C616.126 158.598 765.472 13.2694 961.555 -45.5556C967.552 -47.3545 966 -41.3929 966 -37.1111C966 -5.56001 949.558 20.3922 936.667 48.5556C908.486 110.12 877.756 171.572 838.222 226.667C795.018 286.877 747.52 343.725 699.111 399.778C665.896 438.238 630.981 474.963 599.333 514.778C565.977 556.741 545.351 610.392 542.444 664C540.778 694.735 535.278 757.748 573.555 770.667C591.064 776.576 612.08 773.748 629.111 768.222C692.377 747.696 745.368 704.847 793.333 660.222C864.957 593.587 930.914 518.434 987.555 438.667C1041.83 362.229 1096.81 285.818 1157.89 214.556C1196.92 169.019 1239.18 125.712 1282.67 84.4444C1317.31 51.5725 1354.09 16.9176 1397.56 -4C1402.87 -6.55744 1448.95 -28.6538 1449.67 -15C1450.26 -3.70994 1445.78 7.28535 1441 17.2222C1425.8 48.7896 1408.88 80.0902 1390.67 110C1346.41 182.67 1301.03 254.4 1258.22 328C1206.77 416.459 1157.91 506.024 1102.44 592.111C1066.1 648.521 1020.54 709.264 1004.44 775.556C996.93 806.509 991.292 843.654 998.222 875.333C1001.26 889.225 1013.42 900 1028 900C1041.89 900 1055.29 902.954 1069.22 900.667C1105.27 894.749 1142.18 866.64 1170.89 845.778C1229.39 803.267 1280.48 749.399 1326 693.556C1383.97 622.435 1438.48 548.39 1490.89 473.111C1540.93 401.239 1591.03 328.564 1645.56 260C1684.35 211.211 1723.86 163.445 1770 121.333C1806.24 88.2544 1845.42 58.3145 1883 26.7778C1892.77 18.5737 1902.62 10.4675 1912.44 2.33334C1914.84 0.347006 1917.91 -5.41777 1918 0.222221C1919.11 67.8017 1895.35 135.36 1872.44 198C1860.28 231.27 1851.33 265.239 1837.56 298C1820.94 337.514 1804.69 376.5 1793.11 417.889C1774.18 485.582 1760 552.909 1760 623.556C1760 631.731 1757.79 646.541 1767.11 650.889C1780.46 657.117 1794.64 637.322 1802 629.556C1911.37 514.204 2019.35 397.393 2142 296" stroke="black" stroke-width="436" stroke-linecap="round" stroke-linejoin="round"/>
</g>
</g>
</svg>
