<svg width="48" height="48" viewBox="0 0 48 48" fill="none" xmlns="http://www.w3.org/2000/svg">
<path d="M0.5 33.7229V0.863865L23.0558 13.8214C23.3284 13.9781 23.663 13.981 23.9384 13.8293L47.5 0.846392V12.7098L23.4891 26.4304L12.8163 20.8619C12.2171 20.5493 11.5 20.984 11.5 21.6599V40.5979L0.5 33.7229ZM18.5 44.281V32.1102C18.8607 32.4147 19.3067 32.7731 19.7669 33.0983C20.2764 33.4583 20.8395 33.8037 21.3392 33.9734C22.1946 34.264 23.2792 34.2803 24.1591 34.2278C25.054 34.1744 25.8059 34.0446 26.0285 34.0035C26.1294 33.9849 26.221 33.9495 26.3031 33.9028C26.3031 33.9028 26.3031 33.9028 26.3032 33.9028L47.5 21.8592V33.7147L25.8213 46.5248C25.5896 46.5668 24.901 46.6822 24.092 46.73C23.2407 46.7803 22.322 46.7511 21.6608 46.5266C21.1757 46.3618 20.5095 45.923 19.8693 45.4309C19.2752 44.9744 18.7521 44.5105 18.5 44.281ZM25.8042 46.5349C25.8044 46.5348 25.8046 46.5347 25.8047 46.5346L25.8042 46.5349Z" fill="currentColor" stroke="currentColor"/>
</svg>
