<svg id="Слой_1" data-name="Слой 1" xmlns="http://www.w3.org/2000/svg" width="9.19mm" height="13.33mm" viewBox="0 0 26.05 37.8">
  <defs>
    <style>
      .cls-1 {
        fill: #d41a3b;
      }
    </style>
  </defs>
  <title>расчет стоимости</title>
  <path class="cls-1" d="M23.8,0H2.25A2.25,2.25,0,0,0,0,2.25v33.3A2.25,2.25,0,0,0,2.25,37.8H23.8a2.25,2.25,0,0,0,2.25-2.25V2.25A2.25,2.25,0,0,0,23.8,0ZM4.22,3.77H22v6.84H4.22ZM22,14.3V18H18.08V14.3Zm-6.93,0V18H11.15V14.3Zm-10.88,0H8.11V18H4.19ZM8.1,33.64H4.17V30H8.1Zm0-8H4.2V22H8.13Zm6.93,8H11.13V30h3.93Zm0-8H11.16V22h3.93Zm6.9,8H18.06V30H22Zm0-8H18.09V22H22Z"/>
</svg>
