<svg width="15" height="15" viewBox="0 0 15 15" fill="none" xmlns="http://www.w3.org/2000/svg">
<g clip-path="url(#clip0)">
<path d="M12.0555 15C11.4314 15 10.6776 14.8436 9.84869 14.5308C8.0314 13.8456 6.05417 12.4915 4.28127 10.7186C2.50787 8.94519 1.15373 6.96745 0.468082 5.15016C-0.155005 3.49784 -0.156518 2.14168 0.46455 1.52112C0.553851 1.43182 0.644665 1.33596 0.738507 1.23707C1.30509 0.641229 1.94533 -0.0292828 2.79394 0.000988672C3.37868 0.0252058 3.94526 0.388463 4.52546 1.11044C6.23984 3.24255 5.4669 4.00237 4.57238 4.88327L4.41447 5.03967C4.26816 5.18598 3.99168 5.86356 6.56374 8.43562C7.40327 9.27515 8.11919 9.88966 8.69132 10.2615C9.05155 10.4956 9.69582 10.8498 9.96019 10.5854L10.1191 10.425C10.999 9.53245 11.7588 8.76205 13.8894 10.4749C14.6114 11.0551 14.9742 11.6212 14.9984 12.2069C15.0332 13.055 14.3576 13.6968 13.7613 14.2629C13.6629 14.3567 13.567 14.4475 13.4777 14.5363C13.1695 14.8451 12.6766 15 12.0555 15ZM2.73339 0.504503C2.13049 0.504503 1.58611 1.07764 1.10429 1.58469C1.00742 1.6866 0.913577 1.78549 0.821249 1.87782C0.3586 2.33996 0.405521 3.55435 0.940316 4.97257C1.60124 6.72427 2.91452 8.63844 4.63848 10.3624C6.36193 12.0853 8.27508 13.3986 10.0273 14.059C11.4455 14.5948 12.6599 14.6403 13.1215 14.1786C13.2139 14.0863 13.3128 13.9924 13.4147 13.8961C13.9328 13.4037 14.5206 12.8457 14.4949 12.2266C14.4772 11.8013 14.1674 11.3437 13.5741 10.8669C11.7987 9.43912 11.3022 9.94314 10.4788 10.7781L10.3174 10.9411C9.92387 11.3351 9.28464 11.2478 8.41686 10.6838C7.81496 10.2923 7.07129 9.65556 6.20755 8.79131C4.07291 6.65717 3.39028 5.35096 4.05827 4.68146L4.21922 4.52253C5.05622 3.69915 5.56125 3.20219 4.13294 1.42576C3.65516 0.832949 3.19806 0.523171 2.77275 0.505008C2.75963 0.504504 2.74651 0.504503 2.73339 0.504503Z" fill="#5F879F"/>
</g>
<defs>
<clipPath id="clip0">
<rect width="15" height="15" fill="white"/>
</clipPath>
</defs>
</svg>
