<svg width="12" height="9" viewBox="0 0 12 9" fill="none" xmlns="http://www.w3.org/2000/svg">
<mask id="path-1-inside-1" fill="white">
<path d="M8.02534 0.199219L7.80631 0.39891L7.39151 0.82665L10.6054 4H0V4.45941V5H10.6054L7.39151 8.14256L7.80631 8.58624L8.02534 8.77638L12 4.80171V4.17428L8.02534 0.199219Z"/>
</mask>
<path d="M8.02534 0.199219L7.80631 0.39891L7.39151 0.82665L10.6054 4H0V4.45941V5H10.6054L7.39151 8.14256L7.80631 8.58624L8.02534 8.77638L12 4.80171V4.17428L8.02534 0.199219Z" fill="#1E201D"/>
<path d="M8.02534 0.199219L8.73248 -0.507852L8.05727 -1.18313L7.3516 -0.539756L8.02534 0.199219ZM7.80631 0.39891L7.13257 -0.340064L7.10984 -0.319335L7.08842 -0.297248L7.80631 0.39891ZM7.39151 0.82665L6.67363 0.130492L5.98372 0.841929L6.6889 1.53823L7.39151 0.82665ZM10.6054 4V5H13.0414L11.308 3.28843L10.6054 4ZM0 4V3H-1V4H0ZM0 5H-1V6H0V5ZM10.6054 5L11.3045 5.71499L13.0584 4H10.6054V5ZM7.39151 8.14256L6.69238 7.42756L5.99325 8.11119L6.66102 8.82548L7.39151 8.14256ZM7.80631 8.58624L7.07581 9.26916L7.11141 9.30724L7.15077 9.34141L7.80631 8.58624ZM8.02534 8.77638L7.3698 9.53154L8.07351 10.1424L8.73244 9.48348L8.02534 8.77638ZM12 4.80171L12.7071 5.50882L13 5.21593V4.80171H12ZM12 4.17428H13V3.7601L12.7071 3.46721L12 4.17428ZM7.3516 -0.539756L7.13257 -0.340064L8.48004 1.13789L8.69907 0.938193L7.3516 -0.539756ZM7.08842 -0.297248L6.67363 0.130492L8.1094 1.52281L8.5242 1.09507L7.08842 -0.297248ZM6.6889 1.53823L9.90274 4.71157L11.308 3.28843L8.09413 0.115075L6.6889 1.53823ZM10.6054 3H0V5H10.6054V3ZM-1 4V4.45941H1V4H-1ZM-1 4.45941V5H1V4.45941H-1ZM0 6H10.6054V4H0V6ZM9.90622 4.28501L6.69238 7.42756L8.09065 8.85755L11.3045 5.71499L9.90622 4.28501ZM6.66102 8.82548L7.07581 9.26916L8.5368 7.90332L8.12201 7.45964L6.66102 8.82548ZM7.15077 9.34141L7.3698 9.53154L8.68087 8.02122L8.46185 7.83108L7.15077 9.34141ZM8.73244 9.48348L12.7071 5.50882L11.2929 4.09461L7.31823 8.06927L8.73244 9.48348ZM13 4.80171V4.17428H11V4.80171H13ZM12.7071 3.46721L8.73248 -0.507852L7.31819 0.90629L11.2929 4.88135L12.7071 3.46721Z" fill="black" mask="url(#path-1-inside-1)"/>
</svg>
