<svg width="14" height="21" viewBox="0 0 14 21" fill="none" xmlns="http://www.w3.org/2000/svg">
<path fill-rule="evenodd" clip-rule="evenodd" d="M2.0498 2.07373C3.36328 0.746094 5.14355 0 7 0C8.85645 0 10.6367 0.746094 11.9502 2.07373C13.2627 3.40186 14 5.20264 14 7.08057C13.8916 11.8228 11.2002 16.4663 7 21C2.00781 15.6099 0.0546875 11.0762 0 7.08057C0 5.20264 0.737305 3.40186 2.0498 2.07373ZM9.86035 5.93018C9.86035 7.54834 8.54785 8.85986 6.92969 8.85986C5.31152 8.85986 4 7.54834 4 5.93018C4 4.31201 5.31152 3 6.92969 3C8.54785 3 9.86035 4.31201 9.86035 5.93018Z" fill="#B5213E"/>
</svg>
