<svg width="8" height="12" viewBox="0 0 8 12" fill="none" xmlns="http://www.w3.org/2000/svg">
<path fill-rule="evenodd" clip-rule="evenodd" d="M1.17157 1.18505C1.92172 0.426274 2.93913 0 4 0C5.06087 0 6.07828 0.426274 6.82843 1.18505C7.57857 1.94382 8 2.97293 8 4.046C7.93798 6.75588 6.4 9.4093 4 12C1.14729 8.92002 0.0310078 6.32933 0 4.046C0 2.97293 0.421427 1.94382 1.17157 1.18505ZM5.63429 3.38857C5.63429 4.31325 4.88468 5.06286 3.96 5.06286C3.03532 5.06286 2.28571 4.31325 2.28571 3.38857C2.28571 2.46389 3.03532 1.71429 3.96 1.71429C4.88468 1.71429 5.63429 2.46389 5.63429 3.38857Z" fill="black"/>
</svg>
