<svg width="15" height="14" viewBox="0 0 15 14" fill="none" xmlns="http://www.w3.org/2000/svg">
<path d="M11.7802 10.9618L10.5187 8.91072C10.2671 8.50354 9.71843 8.38334 9.29566 8.6435L8.26244 9.2789C8.21664 9.23728 8.16931 9.19393 8.11961 9.14806C7.66225 8.73053 7.03642 8.15849 6.45849 7.21819C5.87869 6.27574 5.65027 5.45799 5.48306 4.86093C5.46546 4.7977 5.44869 4.73679 5.43164 4.67867L6.12491 4.25294L6.46593 4.04288C6.88934 3.78235 7.02892 3.23844 6.77832 2.83049L5.51683 0.779185C5.26612 0.371693 4.71719 0.251433 4.29378 0.51196L3.71512 0.870195L3.72485 0.885898C3.52074 1.04832 3.33506 1.24749 3.17853 1.4727C3.03247 1.68776 2.92284 1.90008 2.84342 2.12009C2.19268 3.88102 2.62633 5.73544 4.33899 8.51975C6.70647 12.3682 9.26712 12.7303 9.3779 12.7446C9.61994 12.7726 9.85888 12.7701 10.1093 12.7357C10.3785 12.6982 10.6398 12.6224 10.8766 12.5138L10.8846 12.5253L11.4679 12.1749C11.8905 11.9143 12.0306 11.3703 11.7802 10.9618Z" fill="white"/>
</svg>
